<svg width="71" height="18" viewBox="0 0 71 18" fill="none" xmlns="http://www.w3.org/2000/svg">
<path fill-rule="evenodd" clip-rule="evenodd" d="M4.5 8.44452C3.63424 8.44452 2.93376 7.70036 2.93376 6.78061C2.93376 5.86295 3.63424 5.11879 4.5 5.11879C5.3638 5.11879 6.06428 5.86295 6.06428 6.78061C6.06428 7.70036 5.3638 8.44452 4.5 8.44452ZM4.5 2C2.01487 2 0 4.14051 0 6.78061C0 8.70791 2.39265 14.471 3.68933 17.4497C4.00809 18.1834 4.98994 18.1834 5.31067 17.4497C6.60538 14.471 9 8.70791 9 6.78061C9 4.14051 6.98513 2 4.5 2Z" fill="white"/>
<path d="M18.379 8.295H15.035L14.419 10H13.363L16.135 2.377H17.29L20.051 10H18.995L18.379 8.295ZM18.093 7.481L16.707 3.609L15.321 7.481H18.093ZM24.1961 3.862C24.9294 3.862 25.5234 4.08567 25.9781 4.533C26.4328 4.973 26.6601 5.611 26.6601 6.447V10H25.6701V6.59C25.6701 5.98867 25.5198 5.53033 25.2191 5.215C24.9184 4.89233 24.5078 4.731 23.9871 4.731C23.4591 4.731 23.0374 4.896 22.7221 5.226C22.4141 5.556 22.2601 6.03633 22.2601 6.667V10H21.2591V3.972H22.2601V4.83C22.4581 4.522 22.7258 4.28367 23.0631 4.115C23.4078 3.94633 23.7854 3.862 24.1961 3.862ZM29.5162 4.797V8.35C29.5162 8.64333 29.5786 8.85233 29.7032 8.977C29.8279 9.09433 30.0442 9.153 30.3522 9.153H31.0892V10H30.1872C29.6299 10 29.2119 9.87167 28.9332 9.615C28.6546 9.35833 28.5152 8.93667 28.5152 8.35V4.797H27.7342V3.972H28.5152V2.454H29.5162V3.972H31.0892V4.797H29.5162ZM31.9281 6.964C31.9281 6.348 32.0527 5.809 32.3021 5.347C32.5514 4.87767 32.8924 4.51467 33.3251 4.258C33.7651 4.00133 34.2527 3.873 34.7881 3.873C35.3161 3.873 35.7744 3.98667 36.1631 4.214C36.5517 4.44133 36.8414 4.72733 37.0321 5.072V3.972H38.0441V10H37.0321V8.878C36.8341 9.23 36.5371 9.52333 36.1411 9.758C35.7524 9.98533 35.2977 10.099 34.7771 10.099C34.2417 10.099 33.7577 9.967 33.3251 9.703C32.8924 9.439 32.5514 9.06867 32.3021 8.592C32.0527 8.11533 31.9281 7.57267 31.9281 6.964ZM37.0321 6.975C37.0321 6.52033 36.9404 6.12433 36.7571 5.787C36.5737 5.44967 36.3244 5.193 36.0091 5.017C35.7011 4.83367 35.3601 4.742 34.9861 4.742C34.6121 4.742 34.2711 4.83 33.9631 5.006C33.6551 5.182 33.4094 5.43867 33.2261 5.776C33.0427 6.11333 32.9511 6.50933 32.9511 6.964C32.9511 7.426 33.0427 7.82933 33.2261 8.174C33.4094 8.51133 33.6551 8.77167 33.9631 8.955C34.2711 9.131 34.6121 9.219 34.9861 9.219C35.3601 9.219 35.7011 9.131 36.0091 8.955C36.3244 8.77167 36.5737 8.51133 36.7571 8.174C36.9404 7.82933 37.0321 7.42967 37.0321 6.975ZM40.7367 4.951C40.9127 4.60633 41.162 4.33867 41.4847 4.148C41.8147 3.95733 42.2143 3.862 42.6837 3.862V4.896H42.4197C41.2977 4.896 40.7367 5.50467 40.7367 6.722V10H39.7357V3.972H40.7367V4.951ZM43.4652 6.975C43.4652 6.35167 43.5899 5.809 43.8392 5.347C44.0885 4.87767 44.4332 4.51467 44.8732 4.258C45.3205 4.00133 45.8302 3.873 46.4022 3.873C47.1429 3.873 47.7515 4.05267 48.2282 4.412C48.7122 4.77133 49.0312 5.27 49.1852 5.908H48.1072C48.0045 5.54133 47.8029 5.25167 47.5022 5.039C47.2089 4.82633 46.8422 4.72 46.4022 4.72C45.8302 4.72 45.3682 4.918 45.0162 5.314C44.6642 5.70267 44.4882 6.25633 44.4882 6.975C44.4882 7.701 44.6642 8.262 45.0162 8.658C45.3682 9.054 45.8302 9.252 46.4022 9.252C46.8422 9.252 47.2089 9.14933 47.5022 8.944C47.7955 8.73867 47.9972 8.44533 48.1072 8.064H49.1852C49.0239 8.68 48.7012 9.175 48.2172 9.549C47.7332 9.91567 47.1282 10.099 46.4022 10.099C45.8302 10.099 45.3205 9.97067 44.8732 9.714C44.4332 9.45733 44.0885 9.09433 43.8392 8.625C43.5899 8.15567 43.4652 7.60567 43.4652 6.975ZM51.7418 4.797V8.35C51.7418 8.64333 51.8042 8.85233 51.9288 8.977C52.0535 9.09433 52.2698 9.153 52.5778 9.153H53.3148V10H52.4128C51.8555 10 51.4375 9.87167 51.1588 9.615C50.8802 9.35833 50.7408 8.93667 50.7408 8.35V4.797H49.9598V3.972H50.7408V2.454H51.7418V3.972H53.3148V4.797H51.7418ZM55.0447 2.993C54.854 2.993 54.6927 2.927 54.5607 2.795C54.4287 2.663 54.3627 2.50167 54.3627 2.311C54.3627 2.12033 54.4287 1.959 54.5607 1.827C54.6927 1.695 54.854 1.629 55.0447 1.629C55.228 1.629 55.382 1.695 55.5067 1.827C55.6387 1.959 55.7047 2.12033 55.7047 2.311C55.7047 2.50167 55.6387 2.663 55.5067 2.795C55.382 2.927 55.228 2.993 55.0447 2.993ZM55.5287 3.972V10H54.5277V3.972H55.5287ZM56.8607 6.975C56.8607 6.35167 56.9854 5.809 57.2347 5.347C57.484 4.87767 57.8287 4.51467 58.2687 4.258C58.716 4.00133 59.2257 3.873 59.7977 3.873C60.5384 3.873 61.147 4.05267 61.6237 4.412C62.1077 4.77133 62.4267 5.27 62.5807 5.908H61.5027C61.4 5.54133 61.1984 5.25167 60.8977 5.039C60.6044 4.82633 60.2377 4.72 59.7977 4.72C59.2257 4.72 58.7637 4.918 58.4117 5.314C58.0597 5.70267 57.8837 6.25633 57.8837 6.975C57.8837 7.701 58.0597 8.262 58.4117 8.658C58.7637 9.054 59.2257 9.252 59.7977 9.252C60.2377 9.252 60.6044 9.14933 60.8977 8.944C61.191 8.73867 61.3927 8.44533 61.5027 8.064H62.5807C62.4194 8.68 62.0967 9.175 61.6127 9.549C61.1287 9.91567 60.5237 10.099 59.7977 10.099C59.2257 10.099 58.716 9.97067 58.2687 9.714C57.8287 9.45733 57.484 9.09433 57.2347 8.625C56.9854 8.15567 56.8607 7.60567 56.8607 6.975ZM63.5423 6.964C63.5423 6.348 63.667 5.809 63.9163 5.347C64.1657 4.87767 64.5067 4.51467 64.9393 4.258C65.3793 4.00133 65.867 3.873 66.4023 3.873C66.9303 3.873 67.3887 3.98667 67.7773 4.214C68.166 4.44133 68.4557 4.72733 68.6463 5.072V3.972H69.6583V10H68.6463V8.878C68.4483 9.23 68.1513 9.52333 67.7553 9.758C67.3667 9.98533 66.912 10.099 66.3913 10.099C65.856 10.099 65.372 9.967 64.9393 9.703C64.5067 9.439 64.1657 9.06867 63.9163 8.592C63.667 8.11533 63.5423 7.57267 63.5423 6.964ZM68.6463 6.975C68.6463 6.52033 68.5547 6.12433 68.3713 5.787C68.188 5.44967 67.9387 5.193 67.6233 5.017C67.3153 4.83367 66.9743 4.742 66.6003 4.742C66.2263 4.742 65.8853 4.83 65.5773 5.006C65.2693 5.182 65.0237 5.43867 64.8403 5.776C64.657 6.11333 64.5653 6.50933 64.5653 6.964C64.5653 7.426 64.657 7.82933 64.8403 8.174C65.0237 8.51133 65.2693 8.77167 65.5773 8.955C65.8853 9.131 66.2263 9.219 66.6003 9.219C66.9743 9.219 67.3153 9.131 67.6233 8.955C67.9387 8.77167 68.188 8.51133 68.3713 8.174C68.5547 7.82933 68.6463 7.42967 68.6463 6.975Z" fill="white"/>
</svg>
