<svg width="25" height="24" viewBox="0 0 25 24" fill="none" xmlns="http://www.w3.org/2000/svg">
<path d="M4.99729 3.35986L20.2735 3.35986C20.4992 3.4538 20.7018 3.59544 20.8676 3.77507C21.0333 3.95469 21.1582 4.16805 21.2338 4.4005L21.2338 19.4708C21.0137 20.1491 20.3789 20.6399 19.6289 20.6399L5.64193 20.6399C4.70953 20.6399 3.95377 19.8822 3.95377 18.9474L3.95377 4.92394C3.95351 4.58926 4.05252 4.26202 4.23827 3.98361C4.42402 3.7052 4.68816 3.48813 4.99729 3.35986V3.35986ZM8.30569 9.69226H8.64169C8.76649 9.69226 8.91025 9.85594 8.91025 9.97138L8.91025 14.1563C8.91025 14.2719 8.76625 14.445 8.64169 14.445H8.30569V15.4165H11.3189V14.445H10.7143L10.7143 10.0482H10.7431L12.2306 15.4165H13.3822L14.8505 10.0482H14.8793L14.8793 14.445H14.2459V15.4165H16.7983V14.445H16.4722C16.3378 14.445 16.1938 14.2719 16.1938 14.1563V9.97138C16.1938 9.85594 16.3378 9.69226 16.4722 9.69226H16.7983V8.6821H13.6123L12.5664 12.5881H12.5376L11.4821 8.6821L8.30569 8.6821V9.69226V9.69226Z" fill="#C0C0C0"/>
</svg>
