<svg width="25" height="24" viewBox="0 0 25 24" fill="none" xmlns="http://www.w3.org/2000/svg">
<path d="M21.8337 6.26865C21.1418 6.57519 20.4078 6.7763 19.6562 6.86529C20.4479 6.39162 21.0403 5.64628 21.323 4.76816C20.5789 5.2099 19.7647 5.52095 18.9156 5.68785C18.5608 5.30947 18.1322 5.00797 17.6561 4.80205C17.1801 4.59613 16.6668 4.49016 16.1481 4.49072C14.0544 4.49072 12.3566 6.188 12.3566 8.28224C12.3566 8.57912 12.3902 8.8688 12.455 9.14648C9.30383 8.98832 6.51023 7.47873 4.64015 5.18457C4.30296 5.76322 4.12579 6.42116 4.12679 7.09088C4.12629 7.71513 4.28 8.32983 4.57426 8.88036C4.86851 9.4309 5.2942 9.90023 5.81351 10.2466C5.21152 10.2275 4.62279 10.0649 4.09631 9.77241C4.09583 9.78825 4.09583 9.80384 4.09583 9.82016C4.09583 11.6566 5.40263 13.189 7.13687 13.5378C6.57845 13.6889 5.99296 13.7111 5.42471 13.6026C5.90711 15.1086 7.30727 16.2051 8.96639 16.2358C7.62333 17.2898 5.96483 17.8615 4.25759 17.859C3.95159 17.859 3.64991 17.8412 3.35303 17.8059C5.08663 18.9198 7.10426 19.511 9.16487 19.509C16.1388 19.509 19.9524 13.7319 19.9524 8.72216C19.9524 8.558 19.9485 8.39409 19.9413 8.23113C20.684 7.69494 21.3249 7.03033 21.8337 6.26865V6.26865Z" fill="#C0C0C0"/>
</svg>
