<svg width="24" height="24" viewBox="0 0 24 24" fill="none" xmlns="http://www.w3.org/2000/svg">
<path fill-rule="evenodd" clip-rule="evenodd" d="M12.0005 2.87109C17.1693 2.87109 21.36 7.06197 21.36 12.2316C21.36 16.367 18.6787 19.8753 14.9589 21.1123C14.4905 21.1989 14.3201 20.9107 14.3201 20.6618C14.3201 20.4401 14.3282 19.8518 14.3323 19.0699C16.9361 19.6361 17.4854 17.8149 17.4854 17.8149C17.9112 16.7337 18.5249 16.4462 18.5249 16.4462C19.3747 15.8659 18.4603 15.8772 18.4603 15.8772C17.5209 15.9437 17.0265 16.8415 17.0265 16.8415C16.1918 18.2719 14.8356 17.8579 14.3025 17.6198C14.2178 17.0138 13.9754 16.6022 13.7083 16.3677C15.7865 16.1316 17.9714 15.3285 17.9714 11.742C17.9714 10.7198 17.6069 9.88413 17.0083 9.22965C17.1041 8.99397 17.4259 8.04237 16.9164 6.75309C16.9164 6.75309 16.1306 6.50157 14.3421 7.71333C13.596 7.50477 12.7951 7.40061 11.999 7.39749C11.2041 7.40085 10.403 7.50477 9.65591 7.71333C7.86863 6.50157 7.08407 6.75309 7.08407 6.75309C6.57335 8.04237 6.89495 8.99397 6.99095 9.22965C6.39095 9.88413 6.02903 10.7198 6.02903 11.742C6.02903 15.3369 8.21711 16.1289 10.3022 16.3598C9.96671 16.649 9.66719 17.2214 9.66719 18.0948C9.66719 19.3454 9.67847 20.3546 9.67847 20.6616C9.67847 20.9124 9.51023 21.204 9.03503 21.1111C5.31935 19.8715 2.63999 16.3658 2.63999 12.2316C2.63999 7.06197 6.83063 2.87109 12.0005 2.87109V2.87109Z" fill="#C0C0C0"/>
</svg>
